<?xml version="1.0" encoding="utf-8" standalone="no"?>
<!DOCTYPE svg PUBLIC "-//W3C//DTD SVG 1.1//EN"
  "http://www.w3.org/Graphics/SVG/1.1/DTD/svg11.dtd">
<svg xmlns:xlink="http://www.w3.org/1999/xlink" width="1080pt" height="720pt" viewBox="0 0 1080 720" xmlns="http://www.w3.org/2000/svg" version="1.1">
 <metadata>
  <rdf:RDF xmlns:dc="http://purl.org/dc/elements/1.1/" xmlns:cc="http://creativecommons.org/ns#" xmlns:rdf="http://www.w3.org/1999/02/22-rdf-syntax-ns#">
   <cc:Work>
    <dc:type rdf:resource="http://purl.org/dc/dcmitype/StillImage"/>
    <dc:date>2022-07-01T16:14:32.243458</dc:date>
    <dc:format>image/svg+xml</dc:format>
    <dc:creator>
     <cc:Agent>
      <dc:title>Matplotlib v3.5.1, https://matplotlib.org/</dc:title>
     </cc:Agent>
    </dc:creator>
   </cc:Work>
  </rdf:RDF>
 </metadata>
 <defs>
  <style type="text/css">*{stroke-linejoin: round; stroke-linecap: butt}</style>
 </defs>
 <g id="figure_1">
  <g id="patch_1">
   <path d="M 0 720 
L 1080 720 
L 1080 0 
L 0 0 
L 0 720 
z
" style="fill: none"/>
  </g>
  <g id="axes_1">
   <g id="patch_2">
    <path d="M 135 630 
L 972 630 
L 972 86.4 
L 135 86.4 
z
" style="fill: #ffffff"/>
   </g>
   <g id="matplotlib.axis_1">
    <g id="xtick_1">
     <g id="line2d_1">
      <path d="M 173.045455 630 
L 173.045455 86.4 
" clip-path="url(#pd0c6b8dd91)" style="fill: none; stroke: #b0b0b0; stroke-width: 0.8; stroke-linecap: square"/>
     </g>
     <g id="line2d_2">
      <defs>
       <path id="m8a270552ad" d="M 0 0 
L 0 3.5 
" style="stroke: #000000; stroke-width: 0.8"/>
      </defs>
      <g>
       <use xlink:href="#m8a270552ad" x="173.045455" y="630" style="stroke: #000000; stroke-width: 0.8"/>
      </g>
     </g>
     <g id="text_1">
      <!-- 0 -->
      <g transform="translate(169.864205 644.598438)scale(0.1 -0.1)">
       <defs>
        <path id="DejaVuSans-30" d="M 2034 4250 
Q 1547 4250 1301 3770 
Q 1056 3291 1056 2328 
Q 1056 1369 1301 889 
Q 1547 409 2034 409 
Q 2525 409 2770 889 
Q 3016 1369 3016 2328 
Q 3016 3291 2770 3770 
Q 2525 4250 2034 4250 
z
M 2034 4750 
Q 2819 4750 3233 4129 
Q 3647 3509 3647 2328 
Q 3647 1150 3233 529 
Q 2819 -91 2034 -91 
Q 1250 -91 836 529 
Q 422 1150 422 2328 
Q 422 3509 836 4129 
Q 1250 4750 2034 4750 
z
" transform="scale(0.015625)"/>
       </defs>
       <use xlink:href="#DejaVuSans-30"/>
      </g>
     </g>
    </g>
    <g id="xtick_2">
     <g id="line2d_3">
      <path d="M 290.469697 630 
L 290.469697 86.4 
" clip-path="url(#pd0c6b8dd91)" style="fill: none; stroke: #b0b0b0; stroke-width: 0.8; stroke-linecap: square"/>
     </g>
     <g id="line2d_4">
      <g>
       <use xlink:href="#m8a270552ad" x="290.469697" y="630" style="stroke: #000000; stroke-width: 0.8"/>
      </g>
     </g>
     <g id="text_2">
      <!-- 50 -->
      <g transform="translate(284.107197 644.598438)scale(0.1 -0.1)">
       <defs>
        <path id="DejaVuSans-35" d="M 691 4666 
L 3169 4666 
L 3169 4134 
L 1269 4134 
L 1269 2991 
Q 1406 3038 1543 3061 
Q 1681 3084 1819 3084 
Q 2600 3084 3056 2656 
Q 3513 2228 3513 1497 
Q 3513 744 3044 326 
Q 2575 -91 1722 -91 
Q 1428 -91 1123 -41 
Q 819 9 494 109 
L 494 744 
Q 775 591 1075 516 
Q 1375 441 1709 441 
Q 2250 441 2565 725 
Q 2881 1009 2881 1497 
Q 2881 1984 2565 2268 
Q 2250 2553 1709 2553 
Q 1456 2553 1204 2497 
Q 953 2441 691 2322 
L 691 4666 
z
" transform="scale(0.015625)"/>
       </defs>
       <use xlink:href="#DejaVuSans-35"/>
       <use xlink:href="#DejaVuSans-30" x="63.623047"/>
      </g>
     </g>
    </g>
    <g id="xtick_3">
     <g id="line2d_5">
      <path d="M 407.893939 630 
L 407.893939 86.4 
" clip-path="url(#pd0c6b8dd91)" style="fill: none; stroke: #b0b0b0; stroke-width: 0.8; stroke-linecap: square"/>
     </g>
     <g id="line2d_6">
      <g>
       <use xlink:href="#m8a270552ad" x="407.893939" y="630" style="stroke: #000000; stroke-width: 0.8"/>
      </g>
     </g>
     <g id="text_3">
      <!-- 100 -->
      <g transform="translate(398.350189 644.598438)scale(0.1 -0.1)">
       <defs>
        <path id="DejaVuSans-31" d="M 794 531 
L 1825 531 
L 1825 4091 
L 703 3866 
L 703 4441 
L 1819 4666 
L 2450 4666 
L 2450 531 
L 3481 531 
L 3481 0 
L 794 0 
L 794 531 
z
" transform="scale(0.015625)"/>
       </defs>
       <use xlink:href="#DejaVuSans-31"/>
       <use xlink:href="#DejaVuSans-30" x="63.623047"/>
       <use xlink:href="#DejaVuSans-30" x="127.246094"/>
      </g>
     </g>
    </g>
    <g id="xtick_4">
     <g id="line2d_7">
      <path d="M 525.318182 630 
L 525.318182 86.4 
" clip-path="url(#pd0c6b8dd91)" style="fill: none; stroke: #b0b0b0; stroke-width: 0.8; stroke-linecap: square"/>
     </g>
     <g id="line2d_8">
      <g>
       <use xlink:href="#m8a270552ad" x="525.318182" y="630" style="stroke: #000000; stroke-width: 0.8"/>
      </g>
     </g>
     <g id="text_4">
      <!-- 150 -->
      <g transform="translate(515.774432 644.598438)scale(0.1 -0.1)">
       <use xlink:href="#DejaVuSans-31"/>
       <use xlink:href="#DejaVuSans-35" x="63.623047"/>
       <use xlink:href="#DejaVuSans-30" x="127.246094"/>
      </g>
     </g>
    </g>
    <g id="xtick_5">
     <g id="line2d_9">
      <path d="M 642.742424 630 
L 642.742424 86.4 
" clip-path="url(#pd0c6b8dd91)" style="fill: none; stroke: #b0b0b0; stroke-width: 0.8; stroke-linecap: square"/>
     </g>
     <g id="line2d_10">
      <g>
       <use xlink:href="#m8a270552ad" x="642.742424" y="630" style="stroke: #000000; stroke-width: 0.8"/>
      </g>
     </g>
     <g id="text_5">
      <!-- 200 -->
      <g transform="translate(633.198674 644.598438)scale(0.1 -0.1)">
       <defs>
        <path id="DejaVuSans-32" d="M 1228 531 
L 3431 531 
L 3431 0 
L 469 0 
L 469 531 
Q 828 903 1448 1529 
Q 2069 2156 2228 2338 
Q 2531 2678 2651 2914 
Q 2772 3150 2772 3378 
Q 2772 3750 2511 3984 
Q 2250 4219 1831 4219 
Q 1534 4219 1204 4116 
Q 875 4013 500 3803 
L 500 4441 
Q 881 4594 1212 4672 
Q 1544 4750 1819 4750 
Q 2544 4750 2975 4387 
Q 3406 4025 3406 3419 
Q 3406 3131 3298 2873 
Q 3191 2616 2906 2266 
Q 2828 2175 2409 1742 
Q 1991 1309 1228 531 
z
" transform="scale(0.015625)"/>
       </defs>
       <use xlink:href="#DejaVuSans-32"/>
       <use xlink:href="#DejaVuSans-30" x="63.623047"/>
       <use xlink:href="#DejaVuSans-30" x="127.246094"/>
      </g>
     </g>
    </g>
    <g id="xtick_6">
     <g id="line2d_11">
      <path d="M 760.166667 630 
L 760.166667 86.4 
" clip-path="url(#pd0c6b8dd91)" style="fill: none; stroke: #b0b0b0; stroke-width: 0.8; stroke-linecap: square"/>
     </g>
     <g id="line2d_12">
      <g>
       <use xlink:href="#m8a270552ad" x="760.166667" y="630" style="stroke: #000000; stroke-width: 0.8"/>
      </g>
     </g>
     <g id="text_6">
      <!-- 250 -->
      <g transform="translate(750.622917 644.598438)scale(0.1 -0.1)">
       <use xlink:href="#DejaVuSans-32"/>
       <use xlink:href="#DejaVuSans-35" x="63.623047"/>
       <use xlink:href="#DejaVuSans-30" x="127.246094"/>
      </g>
     </g>
    </g>
    <g id="xtick_7">
     <g id="line2d_13">
      <path d="M 877.590909 630 
L 877.590909 86.4 
" clip-path="url(#pd0c6b8dd91)" style="fill: none; stroke: #b0b0b0; stroke-width: 0.8; stroke-linecap: square"/>
     </g>
     <g id="line2d_14">
      <g>
       <use xlink:href="#m8a270552ad" x="877.590909" y="630" style="stroke: #000000; stroke-width: 0.8"/>
      </g>
     </g>
     <g id="text_7">
      <!-- 300 -->
      <g transform="translate(868.047159 644.598438)scale(0.1 -0.1)">
       <defs>
        <path id="DejaVuSans-33" d="M 2597 2516 
Q 3050 2419 3304 2112 
Q 3559 1806 3559 1356 
Q 3559 666 3084 287 
Q 2609 -91 1734 -91 
Q 1441 -91 1130 -33 
Q 819 25 488 141 
L 488 750 
Q 750 597 1062 519 
Q 1375 441 1716 441 
Q 2309 441 2620 675 
Q 2931 909 2931 1356 
Q 2931 1769 2642 2001 
Q 2353 2234 1838 2234 
L 1294 2234 
L 1294 2753 
L 1863 2753 
Q 2328 2753 2575 2939 
Q 2822 3125 2822 3475 
Q 2822 3834 2567 4026 
Q 2313 4219 1838 4219 
Q 1578 4219 1281 4162 
Q 984 4106 628 3988 
L 628 4550 
Q 988 4650 1302 4700 
Q 1616 4750 1894 4750 
Q 2613 4750 3031 4423 
Q 3450 4097 3450 3541 
Q 3450 3153 3228 2886 
Q 3006 2619 2597 2516 
z
" transform="scale(0.015625)"/>
       </defs>
       <use xlink:href="#DejaVuSans-33"/>
       <use xlink:href="#DejaVuSans-30" x="63.623047"/>
       <use xlink:href="#DejaVuSans-30" x="127.246094"/>
      </g>
     </g>
    </g>
   </g>
   <g id="matplotlib.axis_2">
    <g id="ytick_1">
     <g id="line2d_15">
      <path d="M 135 630 
L 972 630 
" clip-path="url(#pd0c6b8dd91)" style="fill: none; stroke: #b0b0b0; stroke-width: 0.8; stroke-linecap: square"/>
     </g>
     <g id="line2d_16">
      <defs>
       <path id="mc0a5eeffad" d="M 0 0 
L -3.5 0 
" style="stroke: #000000; stroke-width: 0.8"/>
      </defs>
      <g>
       <use xlink:href="#mc0a5eeffad" x="135" y="630" style="stroke: #000000; stroke-width: 0.8"/>
      </g>
     </g>
     <g id="text_8">
      <!-- 0.0 -->
      <g transform="translate(112.096875 633.799219)scale(0.1 -0.1)">
       <defs>
        <path id="DejaVuSans-2e" d="M 684 794 
L 1344 794 
L 1344 0 
L 684 0 
L 684 794 
z
" transform="scale(0.015625)"/>
       </defs>
       <use xlink:href="#DejaVuSans-30"/>
       <use xlink:href="#DejaVuSans-2e" x="63.623047"/>
       <use xlink:href="#DejaVuSans-30" x="95.410156"/>
      </g>
     </g>
    </g>
    <g id="ytick_2">
     <g id="line2d_17">
      <path d="M 135 521.28 
L 972 521.28 
" clip-path="url(#pd0c6b8dd91)" style="fill: none; stroke: #b0b0b0; stroke-width: 0.8; stroke-linecap: square"/>
     </g>
     <g id="line2d_18">
      <g>
       <use xlink:href="#mc0a5eeffad" x="135" y="521.28" style="stroke: #000000; stroke-width: 0.8"/>
      </g>
     </g>
     <g id="text_9">
      <!-- 0.2 -->
      <g transform="translate(112.096875 525.079219)scale(0.1 -0.1)">
       <use xlink:href="#DejaVuSans-30"/>
       <use xlink:href="#DejaVuSans-2e" x="63.623047"/>
       <use xlink:href="#DejaVuSans-32" x="95.410156"/>
      </g>
     </g>
    </g>
    <g id="ytick_3">
     <g id="line2d_19">
      <path d="M 135 412.56 
L 972 412.56 
" clip-path="url(#pd0c6b8dd91)" style="fill: none; stroke: #b0b0b0; stroke-width: 0.8; stroke-linecap: square"/>
     </g>
     <g id="line2d_20">
      <g>
       <use xlink:href="#mc0a5eeffad" x="135" y="412.56" style="stroke: #000000; stroke-width: 0.8"/>
      </g>
     </g>
     <g id="text_10">
      <!-- 0.4 -->
      <g transform="translate(112.096875 416.359219)scale(0.1 -0.1)">
       <defs>
        <path id="DejaVuSans-34" d="M 2419 4116 
L 825 1625 
L 2419 1625 
L 2419 4116 
z
M 2253 4666 
L 3047 4666 
L 3047 1625 
L 3713 1625 
L 3713 1100 
L 3047 1100 
L 3047 0 
L 2419 0 
L 2419 1100 
L 313 1100 
L 313 1709 
L 2253 4666 
z
" transform="scale(0.015625)"/>
       </defs>
       <use xlink:href="#DejaVuSans-30"/>
       <use xlink:href="#DejaVuSans-2e" x="63.623047"/>
       <use xlink:href="#DejaVuSans-34" x="95.410156"/>
      </g>
     </g>
    </g>
    <g id="ytick_4">
     <g id="line2d_21">
      <path d="M 135 303.84 
L 972 303.84 
" clip-path="url(#pd0c6b8dd91)" style="fill: none; stroke: #b0b0b0; stroke-width: 0.8; stroke-linecap: square"/>
     </g>
     <g id="line2d_22">
      <g>
       <use xlink:href="#mc0a5eeffad" x="135" y="303.84" style="stroke: #000000; stroke-width: 0.8"/>
      </g>
     </g>
     <g id="text_11">
      <!-- 0.6 -->
      <g transform="translate(112.096875 307.639219)scale(0.1 -0.1)">
       <defs>
        <path id="DejaVuSans-36" d="M 2113 2584 
Q 1688 2584 1439 2293 
Q 1191 2003 1191 1497 
Q 1191 994 1439 701 
Q 1688 409 2113 409 
Q 2538 409 2786 701 
Q 3034 994 3034 1497 
Q 3034 2003 2786 2293 
Q 2538 2584 2113 2584 
z
M 3366 4563 
L 3366 3988 
Q 3128 4100 2886 4159 
Q 2644 4219 2406 4219 
Q 1781 4219 1451 3797 
Q 1122 3375 1075 2522 
Q 1259 2794 1537 2939 
Q 1816 3084 2150 3084 
Q 2853 3084 3261 2657 
Q 3669 2231 3669 1497 
Q 3669 778 3244 343 
Q 2819 -91 2113 -91 
Q 1303 -91 875 529 
Q 447 1150 447 2328 
Q 447 3434 972 4092 
Q 1497 4750 2381 4750 
Q 2619 4750 2861 4703 
Q 3103 4656 3366 4563 
z
" transform="scale(0.015625)"/>
       </defs>
       <use xlink:href="#DejaVuSans-30"/>
       <use xlink:href="#DejaVuSans-2e" x="63.623047"/>
       <use xlink:href="#DejaVuSans-36" x="95.410156"/>
      </g>
     </g>
    </g>
    <g id="ytick_5">
     <g id="line2d_23">
      <path d="M 135 195.12 
L 972 195.12 
" clip-path="url(#pd0c6b8dd91)" style="fill: none; stroke: #b0b0b0; stroke-width: 0.8; stroke-linecap: square"/>
     </g>
     <g id="line2d_24">
      <g>
       <use xlink:href="#mc0a5eeffad" x="135" y="195.12" style="stroke: #000000; stroke-width: 0.8"/>
      </g>
     </g>
     <g id="text_12">
      <!-- 0.8 -->
      <g transform="translate(112.096875 198.919219)scale(0.1 -0.1)">
       <defs>
        <path id="DejaVuSans-38" d="M 2034 2216 
Q 1584 2216 1326 1975 
Q 1069 1734 1069 1313 
Q 1069 891 1326 650 
Q 1584 409 2034 409 
Q 2484 409 2743 651 
Q 3003 894 3003 1313 
Q 3003 1734 2745 1975 
Q 2488 2216 2034 2216 
z
M 1403 2484 
Q 997 2584 770 2862 
Q 544 3141 544 3541 
Q 544 4100 942 4425 
Q 1341 4750 2034 4750 
Q 2731 4750 3128 4425 
Q 3525 4100 3525 3541 
Q 3525 3141 3298 2862 
Q 3072 2584 2669 2484 
Q 3125 2378 3379 2068 
Q 3634 1759 3634 1313 
Q 3634 634 3220 271 
Q 2806 -91 2034 -91 
Q 1263 -91 848 271 
Q 434 634 434 1313 
Q 434 1759 690 2068 
Q 947 2378 1403 2484 
z
M 1172 3481 
Q 1172 3119 1398 2916 
Q 1625 2713 2034 2713 
Q 2441 2713 2670 2916 
Q 2900 3119 2900 3481 
Q 2900 3844 2670 4047 
Q 2441 4250 2034 4250 
Q 1625 4250 1398 4047 
Q 1172 3844 1172 3481 
z
" transform="scale(0.015625)"/>
       </defs>
       <use xlink:href="#DejaVuSans-30"/>
       <use xlink:href="#DejaVuSans-2e" x="63.623047"/>
       <use xlink:href="#DejaVuSans-38" x="95.410156"/>
      </g>
     </g>
    </g>
    <g id="ytick_6">
     <g id="line2d_25">
      <path d="M 135 86.4 
L 972 86.4 
" clip-path="url(#pd0c6b8dd91)" style="fill: none; stroke: #b0b0b0; stroke-width: 0.8; stroke-linecap: square"/>
     </g>
     <g id="line2d_26">
      <g>
       <use xlink:href="#mc0a5eeffad" x="135" y="86.4" style="stroke: #000000; stroke-width: 0.8"/>
      </g>
     </g>
     <g id="text_13">
      <!-- 1.0 -->
      <g transform="translate(112.096875 90.199219)scale(0.1 -0.1)">
       <use xlink:href="#DejaVuSans-31"/>
       <use xlink:href="#DejaVuSans-2e" x="63.623047"/>
       <use xlink:href="#DejaVuSans-30" x="95.410156"/>
      </g>
     </g>
    </g>
   </g>
   <g id="line2d_27">
    <path d="M 267.708791 -1 
L 271.681818 33.802995 
L 295.166667 230.663919 
L 299.863636 268.275033 
L 302.212121 287.517292 
L 309.257576 339.068099 
L 313.954545 368.945561 
L 318.651515 398.051131 
L 321 409.861084 
L 325.69697 434.831142 
L 328.045455 445.622145 
L 330.393939 457.474834 
L 332.742424 467.256236 
L 335.090909 476.199648 
L 337.439394 486.825697 
L 339.787879 493.479697 
L 344.484848 509.574734 
L 346.833333 516.649389 
L 349.181818 522.797487 
L 351.530303 527.62571 
L 353.878788 533.315592 
L 356.227273 536.823957 
L 358.575758 542.523494 
L 360.924242 547.652019 
L 363.272727 550.242745 
L 365.621212 554.34324 
L 367.969697 557.683225 
L 370.318182 559.270441 
L 372.666667 563.37627 
L 375.015152 565.573954 
L 377.363636 569.340066 
L 379.712121 571.903198 
L 382.060606 573.018091 
L 384.409091 575.200049 
L 386.757576 576.070699 
L 389.106061 580.261508 
L 391.454545 581.259809 
L 393.80303 582.894918 
L 396.151515 584.325276 
L 398.5 585.434531 
L 400.848485 587.857537 
L 403.19697 587.902635 
L 405.545455 589.099017 
L 407.893939 591.005991 
L 410.242424 592.019031 
L 412.590909 593.547633 
L 414.939394 594.110063 
L 417.287879 595.072149 
L 419.636364 596.978734 
L 421.984848 597.289752 
L 424.333333 597.358515 
L 426.681818 598.327883 
L 429.030303 599.00478 
L 431.378788 599.934001 
L 433.727273 601.137018 
L 436.075758 601.829006 
L 438.424242 602.710008 
L 440.772727 601.580682 
L 443.121212 604.710246 
L 445.469697 604.960604 
L 447.818182 605.669169 
L 450.166667 605.19568 
L 452.515152 606.949423 
L 454.863636 607.561807 
L 457.212121 607.732055 
L 459.560606 608.106613 
L 466.606061 609.545106 
L 468.954545 591.720358 
L 471.30303 610.046655 
L 473.651515 610.784285 
L 476 611.158789 
L 478.348485 611.409543 
L 480.69697 612.28347 
L 483.045455 612.896733 
L 487.742424 613.20171 
L 490.090909 614.000242 
L 492.439394 613.980314 
L 494.787879 614.675414 
L 497.136364 614.42026 
L 499.484848 614.855492 
L 501.833333 614.955251 
L 504.181818 615.637702 
L 506.530303 615.677358 
L 508.878788 615.990746 
L 511.227273 614.793497 
L 513.575758 616.839002 
L 515.924242 616.33638 
L 518.272727 617.116841 
L 520.621212 617.413727 
L 522.969697 617.242567 
L 527.666667 617.77422 
L 530.015152 618.273719 
L 532.363636 618.475362 
L 534.712121 618.303691 
L 539.409091 618.694068 
L 541.757576 619.271648 
L 544.106061 619.158259 
L 546.454545 619.659908 
L 548.80303 619.12035 
L 551.151515 619.705722 
L 553.5 619.924831 
L 555.848485 619.708137 
L 558.19697 620.219969 
L 560.545455 620.220385 
L 562.893939 620.389395 
L 565.242424 620.819865 
L 567.590909 620.737884 
L 569.939394 620.543225 
L 572.287879 621.01898 
L 574.636364 621.288431 
L 579.333333 621.500411 
L 581.681818 621.428069 
L 586.378788 621.774887 
L 588.727273 621.681463 
L 591.075758 621.981215 
L 593.424242 622.078491 
L 595.772727 622.046477 
L 598.121212 622.367751 
L 602.818182 622.646007 
L 605.166667 622.604679 
L 612.212121 623.091993 
L 616.909091 622.847149 
L 619.257576 623.298575 
L 621.606061 623.181533 
L 623.954545 623.446905 
L 628.651515 623.196798 
L 631 623.845999 
L 635.69697 623.550303 
L 638.045455 623.881413 
L 642.742424 623.882211 
L 645.090909 624.130365 
L 647.439394 623.986697 
L 654.484848 624.268406 
L 656.833333 624.283184 
L 659.181818 624.539672 
L 661.530303 624.483627 
L 663.878788 624.670551 
L 666.227273 624.70911 
L 668.575758 624.560441 
L 689.712121 625.172881 
L 692.060606 625.124695 
L 694.409091 625.278806 
L 699.106061 625.309416 
L 713.19697 625.592826 
L 715.545455 625.557911 
L 717.893939 625.726073 
L 720.242424 625.663344 
L 722.590909 625.814488 
L 729.636364 625.849514 
L 731.984848 626.012666 
L 746.075758 626.134995 
L 748.424242 626.041978 
L 750.772727 626.257826 
L 755.469697 626.2146 
L 757.818182 626.409947 
L 760.166667 626.371787 
L 762.515152 626.505816 
L 764.863636 626.354783 
L 767.212121 626.503834 
L 774.257576 626.580902 
L 790.69697 626.848534 
L 793.045455 626.793284 
L 795.393939 626.912273 
L 802.439394 626.971894 
L 809.484848 627.058139 
L 811.833333 627.029883 
L 814.181818 627.179286 
L 821.227273 627.109518 
L 828.272727 627.313058 
L 832.969697 627.367347 
L 837.666667 627.420009 
L 856.454545 627.579897 
L 858.80303 627.72413 
L 863.5 627.671844 
L 865.848485 627.774894 
L 870.545455 627.759055 
L 875.242424 627.826486 
L 882.287879 627.86799 
L 889.333333 628.01556 
L 891.681818 627.930958 
L 896.378788 628.060725 
L 898.727273 628.013656 
L 901.075758 628.085791 
L 903.424242 628.012237 
L 908.121212 628.157541 
L 912.818182 628.175988 
L 929.257576 628.261636 
L 933.954545 628.304475 
L 933.954545 628.304475 
" clip-path="url(#pd0c6b8dd91)" style="fill: none; stroke: #1f77b4; stroke-width: 1.5; stroke-linecap: square"/>
   </g>
   <g id="line2d_28">
    <path d="M 173.045455 474.051456 
L 175.393939 452.407353 
L 177.742424 457.957124 
L 180.090909 457.679625 
L 182.439394 453.239818 
L 184.787879 451.019906 
L 187.136364 445.192652 
L 189.484848 442.140276 
L 191.833333 433.260645 
L 194.181818 430.485751 
L 196.530303 422.716084 
L 198.878788 419.108726 
L 201.227273 416.056349 
L 203.575758 412.72649 
L 205.924242 408.841648 
L 208.272727 405.234306 
L 210.621212 401.071982 
L 212.969697 398.297088 
L 215.318182 396.354675 
L 217.666667 396.077176 
L 220.015152 396.077176 
L 222.363636 397.18714 
L 224.712121 395.52221 
L 227.060606 396.077176 
L 229.409091 393.024816 
L 231.757576 394.134763 
L 234.106061 388.584992 
L 236.454545 388.584992 
L 238.80303 385.532616 
L 241.151515 381.092808 
L 243.5 375.265538 
L 245.848485 377.207967 
L 248.19697 367.495871 
L 250.545455 367.495871 
L 252.893939 342.521893 
L 255.242424 329.202455 
L 257.590909 332.809797 
L 259.939394 311.443193 
L 262.287879 316.1605 
L 264.636364 297.568757 
L 266.984848 293.961415 
L 269.333333 285.914249 
L 271.681818 274.814706 
L 274.030303 263.160198 
L 276.378788 254.835517 
L 278.727273 241.238596 
L 281.075758 236.52129 
L 283.424242 222.091888 
L 285.772727 220.149475 
L 288.121212 210.992345 
L 290.469697 204.332626 
L 292.818182 196.840426 
L 295.166667 193.233084 
L 297.515152 190.180707 
L 299.863636 185.185918 
L 302.212121 181.023578 
L 304.560606 179.081165 
L 306.909091 170.479033 
L 309.257576 165.761727 
L 311.606061 158.824493 
L 313.954545 152.442257 
L 316.30303 150.777327 
L 318.651515 147.72495 
L 321 144.117608 
L 323.348485 141.065231 
L 325.69697 138.290337 
L 328.045455 135.792959 
L 330.393939 129.965689 
L 332.742424 124.970899 
L 335.090909 120.531076 
L 337.439394 119.97611 
L 339.787879 117.478699 
L 342.136364 113.593874 
L 344.484848 112.206427 
L 346.833333 107.766604 
L 349.181818 106.656672 
L 351.530303 105.269225 
L 353.878788 104.991743 
L 356.227273 104.436744 
L 358.575758 103.326813 
L 360.924242 99.996953 
L 363.272727 100.274436 
L 365.621212 99.441955 
L 367.969697 99.441955 
L 370.318182 99.164472 
L 372.666667 97.777025 
L 375.015152 97.499542 
L 377.363636 95.55713 
L 379.712121 96.112096 
L 382.060606 98.054508 
L 386.757576 95.834613 
L 389.106061 94.447166 
L 391.454545 93.614717 
L 393.80303 95.279647 
L 396.151515 95.002132 
L 398.5 93.8922 
L 400.848485 93.614717 
L 403.19697 93.614717 
L 405.545455 93.8922 
L 407.893939 92.504753 
L 410.242424 92.782236 
L 412.590909 91.949755 
L 414.939394 93.059719 
L 417.287879 92.504753 
L 419.636364 90.839823 
L 421.984848 92.22727 
L 424.333333 91.672272 
L 429.030303 91.672272 
L 431.378788 92.504753 
L 433.727273 90.284825 
L 436.075758 91.394789 
L 438.424242 90.562341 
L 440.772727 91.394789 
L 443.121212 90.284825 
L 445.469697 90.562341 
L 447.818182 90.284825 
L 450.166667 91.117306 
L 452.515152 90.284825 
L 457.212121 89.729859 
L 459.560606 90.007342 
L 461.909091 89.729859 
L 464.257576 90.007342 
L 466.606061 90.007342 
L 468.954545 95.834613 
L 471.30303 89.729859 
L 473.651515 90.284825 
L 476 89.452377 
L 478.348485 89.452377 
L 480.69697 88.897411 
L 483.045455 88.897411 
L 485.393939 89.174894 
L 487.742424 89.174894 
L 490.090909 88.619896 
L 492.439394 88.619896 
L 494.787879 88.897411 
L 497.136364 88.342413 
L 501.833333 88.897411 
L 504.181818 88.619896 
L 506.530303 88.06493 
L 508.878788 88.619896 
L 511.227273 88.342413 
L 513.575758 88.342413 
L 515.924242 89.452377 
L 518.272727 88.342413 
L 520.621212 87.787447 
L 522.969697 88.342413 
L 525.318182 87.787447 
L 527.666667 88.342413 
L 530.015152 87.509964 
L 532.363636 87.787447 
L 537.060606 87.787447 
L 539.409091 88.897411 
L 541.757576 87.787447 
L 544.106061 88.06493 
L 546.454545 87.509964 
L 548.80303 88.06493 
L 551.151515 87.787447 
L 558.19697 87.787447 
L 560.545455 87.509964 
L 562.893939 87.787447 
L 565.242424 87.787447 
L 567.590909 87.509964 
L 569.939394 88.06493 
L 574.636364 87.509964 
L 579.333333 87.509964 
L 581.681818 87.787447 
L 584.030303 87.509964 
L 588.727273 87.509964 
L 591.075758 87.787447 
L 593.424242 87.509964 
L 595.772727 87.787447 
L 602.818182 86.954966 
L 605.166667 87.509964 
L 609.863636 86.954966 
L 612.212121 87.232481 
L 621.606061 87.232481 
L 623.954545 87.509964 
L 626.30303 87.509964 
L 631 86.954966 
L 633.348485 87.232481 
L 635.69697 86.954966 
L 642.742424 86.954966 
L 645.090909 86.677483 
L 647.439394 86.677483 
L 652.136364 87.232481 
L 654.484848 86.954966 
L 656.833333 86.954966 
L 659.181818 86.677483 
L 666.227273 86.677483 
L 668.575758 86.954966 
L 670.924242 86.954966 
L 673.272727 86.677483 
L 675.621212 86.954966 
L 685.015152 86.954966 
L 687.363636 86.677483 
L 689.712121 86.677483 
L 692.060606 86.954966 
L 694.409091 86.677483 
L 713.19697 86.677483 
L 715.545455 86.954966 
L 717.893939 86.954966 
L 720.242424 86.677483 
L 743.727273 86.677483 
L 746.075758 86.954966 
L 748.424242 86.677483 
L 771.909091 86.677483 
L 774.257576 86.954966 
L 776.606061 86.677483 
L 933.954545 86.677483 
L 933.954545 86.677483 
" clip-path="url(#pd0c6b8dd91)" style="fill: none; stroke: #ff7f0e; stroke-width: 1.5; stroke-linecap: square"/>
   </g>
   <g id="line2d_29">
    <path d="M 268.096457 -1 
L 269.333333 8.679388 
L 271.681818 29.713784 
L 274.030303 48.351924 
L 276.378788 68.493022 
L 278.727273 86.185764 
L 281.075758 105.569681 
L 283.424242 127.316576 
L 285.772727 142.226648 
L 288.121212 160.840164 
L 290.469697 181.28243 
L 292.818182 204.936842 
L 295.166667 222.603857 
L 297.515152 243.719839 
L 299.863636 262.826759 
L 302.212121 279.273614 
L 304.560606 299.192343 
L 306.909091 314.588464 
L 309.257576 327.770003 
L 311.606061 343.625117 
L 313.954545 358.248294 
L 316.30303 374.273125 
L 318.651515 387.092339 
L 321 403.773762 
L 323.348485 415.346863 
L 325.69697 428.92653 
L 328.045455 435.459156 
L 330.393939 452.104695 
L 332.742424 429.036483 
L 335.090909 471.553397 
L 337.439394 480.040359 
L 339.787879 494.382667 
L 342.136364 500.926414 
L 344.484848 503.972254 
L 346.833333 512.497668 
L 349.181818 523.413812 
L 351.530303 528.762365 
L 353.878788 469.749515 
L 356.227273 532.093763 
L 358.575758 543.203755 
L 360.924242 546.360973 
L 363.272727 552.004594 
L 365.621212 554.254356 
L 367.969697 521.323027 
L 370.318182 561.410848 
L 372.666667 562.940228 
L 375.015152 562.672976 
L 377.363636 568.961119 
L 379.712121 570.536302 
L 382.060606 572.696737 
L 384.409091 569.779238 
L 386.757576 577.209402 
L 389.106061 581.619012 
L 391.454545 583.612861 
L 393.80303 580.831832 
L 396.151515 580.024842 
L 398.5 587.904628 
L 400.848485 564.802906 
L 403.19697 582.435171 
L 405.545455 588.976569 
L 407.893939 589.544107 
L 410.242424 592.758238 
L 412.590909 594.950568 
L 414.939394 592.939485 
L 417.287879 595.972215 
L 419.636364 594.452016 
L 421.984848 598.484384 
L 424.333333 599.352448 
L 426.681818 599.087484 
L 429.030303 600.320248 
L 431.378788 600.666715 
L 433.727273 600.41346 
L 436.075758 596.846238 
L 438.424242 444.324838 
L 440.772727 603.437957 
L 443.121212 604.345663 
L 445.469697 604.394356 
L 447.818182 606.008649 
L 450.166667 605.160543 
L 452.515152 602.63195 
L 454.863636 604.415994 
L 457.212121 605.118697 
L 459.560606 607.382785 
L 461.909091 608.304112 
L 464.257576 608.201158 
L 466.606061 399.74446 
L 468.954545 575.01563 
L 471.30303 609.446123 
L 473.651515 605.993696 
L 476 605.417659 
L 478.348485 610.651544 
L 480.69697 610.001834 
L 483.045455 610.089643 
L 485.393939 611.028166 
L 487.742424 610.141245 
L 490.090909 610.36423 
L 492.439394 611.688195 
L 494.787879 611.610944 
L 497.136364 611.789074 
L 499.484848 612.841193 
L 501.833333 612.784099 
L 504.181818 610.21161 
L 506.530303 612.883489 
L 508.878788 549.191743 
L 511.227273 613.476073 
L 513.575758 592.176589 
L 515.924242 611.522905 
L 518.272727 611.424452 
L 520.621212 613.649552 
L 522.969697 614.984023 
L 525.318182 615.314875 
L 527.666667 615.060705 
L 530.015152 615.323578 
L 532.363636 614.515692 
L 534.712121 612.29061 
L 537.060606 615.931362 
L 539.409091 614.959229 
L 541.757576 614.563784 
L 544.106061 616.00565 
L 546.454545 616.473346 
L 548.80303 615.956255 
L 551.151515 614.477931 
L 553.5 616.408818 
L 555.848485 617.040513 
L 558.19697 616.979919 
L 560.545455 614.277529 
L 562.893939 616.187153 
L 565.242424 617.530799 
L 567.590909 617.614359 
L 569.939394 617.467503 
L 572.287879 617.950416 
L 574.636364 617.889275 
L 576.984848 617.073323 
L 579.333333 617.331483 
L 581.681818 616.497381 
L 584.030303 617.97129 
L 586.378788 617.34262 
L 588.727273 618.54735 
L 591.075758 618.250903 
L 593.424242 618.443133 
L 595.772727 618.324884 
L 598.121212 616.606979 
L 600.469697 618.269711 
L 602.818182 618.845286 
L 605.166667 618.543766 
L 607.515152 618.936604 
L 609.863636 618.6991 
L 612.212121 619.020782 
L 614.560606 618.213449 
L 616.909091 618.273668 
L 619.257576 619.701015 
L 621.606061 619.992252 
L 623.954545 618.951037 
L 626.30303 620.038549 
L 631 619.076567 
L 633.348485 618.881626 
L 635.69697 620.145378 
L 638.045455 619.719539 
L 640.393939 619.829443 
L 642.742424 620.139159 
L 645.090909 620.294933 
L 647.439394 620.106808 
L 649.787879 619.402729 
L 652.136364 620.455082 
L 654.484848 620.208614 
L 656.833333 620.163017 
L 659.181818 619.629215 
L 661.530303 620.979329 
L 663.878788 620.627606 
L 666.227273 619.8746 
L 668.575758 620.184137 
L 670.924242 620.003381 
L 673.272727 620.632722 
L 677.969697 620.994163 
L 680.318182 620.611261 
L 682.666667 620.933679 
L 685.015152 620.851076 
L 687.363636 621.223766 
L 689.712121 620.827317 
L 692.060606 621.29811 
L 696.757576 621.069391 
L 699.106061 621.412673 
L 701.454545 621.380158 
L 703.80303 621.863505 
L 706.151515 621.630562 
L 708.5 621.546657 
L 710.848485 621.291006 
L 715.545455 621.498512 
L 717.893939 617.771676 
L 720.242424 621.242612 
L 722.590909 622.068588 
L 724.939394 621.808235 
L 727.287879 621.88606 
L 729.636364 621.830809 
L 731.984848 621.661776 
L 734.333333 622.253998 
L 736.681818 622.409568 
L 739.030303 622.246707 
L 741.378788 622.208988 
L 743.727273 622.304018 
L 746.075758 620.279912 
L 748.424242 621.945289 
L 750.772727 622.472463 
L 753.121212 621.71479 
L 755.469697 622.549847 
L 757.818182 622.329095 
L 762.515152 622.29791 
L 767.212121 621.985051 
L 769.560606 622.848176 
L 771.909091 622.539402 
L 776.606061 622.593067 
L 778.954545 622.74303 
L 781.30303 623.139265 
L 783.651515 622.416216 
L 786 622.581657 
L 788.348485 622.473656 
L 790.69697 622.738348 
L 793.045455 622.641026 
L 797.742424 622.941601 
L 800.090909 623.4417 
L 802.439394 622.926472 
L 804.787879 620.865247 
L 807.136364 622.829062 
L 809.484848 622.948235 
L 811.833333 622.95582 
L 814.181818 622.851931 
L 818.878788 622.841912 
L 821.227273 622.850544 
L 823.575758 623.240848 
L 825.924242 623.087129 
L 828.272727 623.325836 
L 832.969697 623.210881 
L 835.318182 623.24495 
L 837.666667 623.052079 
L 840.015152 622.352703 
L 842.363636 623.681279 
L 844.712121 623.08868 
L 847.060606 623.40015 
L 849.409091 623.571799 
L 851.757576 622.843072 
L 854.106061 623.203571 
L 858.80303 623.393453 
L 861.151515 623.578426 
L 863.5 623.18229 
L 865.848485 623.387508 
L 868.19697 623.457421 
L 870.545455 623.336005 
L 872.893939 623.648184 
L 875.242424 623.416584 
L 877.590909 623.693932 
L 879.939394 623.536727 
L 882.287879 623.619044 
L 884.636364 623.225758 
L 886.984848 624.076907 
L 889.333333 623.786456 
L 891.681818 623.673777 
L 894.030303 623.771312 
L 901.075758 623.621694 
L 903.424242 623.837318 
L 905.772727 623.714352 
L 908.121212 623.802083 
L 910.469697 623.736981 
L 912.818182 623.820099 
L 915.166667 623.689959 
L 917.515152 623.973763 
L 919.863636 623.925812 
L 922.212121 623.495603 
L 924.560606 623.750237 
L 926.909091 623.717188 
L 929.257576 624.024579 
L 931.606061 623.690623 
L 933.954545 623.75199 
L 933.954545 623.75199 
" clip-path="url(#pd0c6b8dd91)" style="fill: none; stroke: #2ca02c; stroke-width: 1.5; stroke-linecap: square"/>
   </g>
   <g id="line2d_30">
    <path d="M 173.045455 476.163132 
L 175.393939 474.224024 
L 177.742424 476.809517 
L 182.439394 471.638531 
L 184.787879 466.467545 
L 187.136364 461.942928 
L 189.484848 454.186448 
L 191.833333 449.661831 
L 194.181818 443.844475 
L 196.530303 440.612597 
L 198.878788 436.734365 
L 201.227273 433.502503 
L 205.924242 416.696789 
L 210.621212 408.94031 
L 212.969697 405.708447 
L 215.318182 404.415692 
L 217.666667 405.708447 
L 220.015152 405.708447 
L 222.363636 405.062062 
L 224.712121 408.94031 
L 227.060606 405.708447 
L 229.409091 404.415692 
L 231.757576 401.830199 
L 236.454545 397.951968 
L 238.80303 393.427351 
L 241.151515 394.07372 
L 243.5 390.195488 
L 245.848485 383.085378 
L 248.19697 380.499885 
L 250.545455 352.705813 
L 252.893939 349.473967 
L 255.242424 361.108678 
L 257.590909 343.656611 
L 259.939394 350.766705 
L 262.287879 320.387156 
L 264.636364 324.911773 
L 266.984848 308.752445 
L 269.333333 297.764103 
L 271.681818 273.848279 
L 274.030303 264.799045 
L 276.378788 251.871595 
L 278.727273 247.346978 
L 283.424242 220.845645 
L 285.772727 226.663033 
L 288.121212 221.492047 
L 290.469697 194.990713 
L 292.818182 205.332686 
L 295.166667 204.039947 
L 297.515152 194.344344 
L 299.863636 180.124123 
L 302.212121 196.929853 
L 304.560606 175.599539 
L 306.909091 186.587881 
L 309.257576 170.428552 
L 311.606061 159.440178 
L 313.954545 172.36766 
L 316.30303 163.318426 
L 318.651515 157.50107 
L 321 141.988111 
L 323.348485 132.938877 
L 325.69697 145.21999 
L 328.045455 130.3534 
L 330.393939 128.41426 
L 332.742424 143.927219 
L 335.090909 133.585246 
L 337.439394 130.999769 
L 339.787879 116.779549 
L 342.136364 121.304166 
L 344.484848 114.840441 
L 349.181818 109.669455 
L 351.530303 107.730315 
L 353.878788 132.292508 
L 356.227273 118.718657 
L 358.575758 103.205698 
L 360.924242 102.559328 
L 363.272727 100.620221 
L 365.621212 103.852067 
L 367.969697 132.292508 
L 370.318182 100.620221 
L 372.666667 98.034711 
L 375.015152 100.620221 
L 379.712121 99.327482 
L 382.060606 97.388342 
L 384.409091 99.327482 
L 386.757576 97.388342 
L 389.106061 94.802865 
L 391.454545 97.388342 
L 393.80303 96.095603 
L 398.5 96.095603 
L 400.848485 110.962193 
L 403.19697 97.388342 
L 405.545455 94.802865 
L 407.893939 93.510094 
L 410.242424 94.802865 
L 412.590909 95.449234 
L 414.939394 93.510094 
L 417.287879 95.449234 
L 419.636364 92.863725 
L 424.333333 95.449234 
L 426.681818 94.156496 
L 429.030303 96.095603 
L 431.378788 93.510094 
L 433.727273 94.156496 
L 436.075758 96.095603 
L 438.424242 163.318426 
L 440.772727 92.217356 
L 443.121212 91.570986 
L 445.469697 91.570986 
L 447.818182 93.510094 
L 450.166667 91.570986 
L 452.515152 93.510094 
L 454.863636 92.863725 
L 457.212121 91.570986 
L 459.560606 92.863725 
L 464.257576 92.863725 
L 466.606061 189.173358 
L 468.954545 110.962193 
L 471.30303 90.924617 
L 473.651515 90.924617 
L 476 90.278248 
L 478.348485 92.217356 
L 480.69697 92.217356 
L 483.045455 90.924617 
L 485.393939 91.570986 
L 487.742424 90.278248 
L 490.090909 92.217356 
L 492.439394 90.924617 
L 494.787879 90.924617 
L 497.136364 92.217356 
L 499.484848 90.924617 
L 501.833333 90.924617 
L 504.181818 92.217356 
L 506.530303 90.924617 
L 508.878788 108.376684 
L 511.227273 90.278248 
L 513.575758 100.620221 
L 515.924242 91.570986 
L 518.272727 92.217356 
L 520.621212 89.631879 
L 522.969697 88.985509 
L 527.666667 90.278248 
L 530.015152 90.278248 
L 532.363636 88.985509 
L 534.712121 90.278248 
L 537.060606 89.631879 
L 539.409091 92.217356 
L 541.757576 89.631879 
L 544.106061 90.278248 
L 546.454545 89.631879 
L 548.80303 89.631879 
L 551.151515 90.924617 
L 553.5 88.985509 
L 558.19697 88.985509 
L 560.545455 90.278248 
L 562.893939 88.985509 
L 565.242424 88.985509 
L 567.590909 89.631879 
L 569.939394 89.631879 
L 572.287879 88.985509 
L 576.984848 88.985509 
L 579.333333 90.278248 
L 581.681818 90.924617 
L 584.030303 88.985509 
L 586.378788 90.924617 
L 588.727273 88.985509 
L 602.818182 88.985509 
L 605.166667 89.631879 
L 607.515152 88.985509 
L 614.560606 88.985509 
L 616.909091 89.631879 
L 621.606061 88.339108 
L 623.954545 88.985509 
L 626.30303 88.339108 
L 628.651515 88.985509 
L 631 88.985509 
L 633.348485 89.631879 
L 638.045455 88.339108 
L 640.393939 88.339108 
L 642.742424 88.985509 
L 645.090909 88.985509 
L 647.439394 88.339108 
L 649.787879 89.631879 
L 652.136364 88.985509 
L 656.833333 88.985509 
L 659.181818 88.339108 
L 663.878788 88.339108 
L 666.227273 88.985509 
L 668.575758 88.339108 
L 670.924242 88.339108 
L 673.272727 88.985509 
L 682.666667 88.985509 
L 685.015152 88.339108 
L 689.712121 89.631879 
L 692.060606 88.339108 
L 694.409091 88.339108 
L 696.757576 88.985509 
L 699.106061 88.339108 
L 743.727273 88.339108 
L 746.075758 90.278248 
L 748.424242 88.339108 
L 802.439394 88.339108 
L 804.787879 87.692738 
L 807.136364 88.339108 
L 837.666667 88.339108 
L 840.015152 87.692738 
L 842.363636 88.339108 
L 849.409091 88.339108 
L 851.757576 87.692738 
L 854.106061 88.339108 
L 858.80303 88.339108 
L 861.151515 87.692738 
L 863.5 88.339108 
L 872.893939 88.339108 
L 875.242424 87.692738 
L 877.590909 88.339108 
L 889.333333 88.339108 
L 891.681818 87.692738 
L 894.030303 88.339108 
L 903.424242 88.339108 
L 905.772727 87.692738 
L 908.121212 88.339108 
L 917.515152 88.339108 
L 919.863636 87.692738 
L 924.560606 87.692738 
L 926.909091 88.339108 
L 929.257576 87.692738 
L 931.606061 88.339108 
L 933.954545 87.692738 
L 933.954545 87.692738 
" clip-path="url(#pd0c6b8dd91)" style="fill: none; stroke: #d62728; stroke-width: 1.5; stroke-linecap: square"/>
   </g>
   <g id="patch_3">
    <path d="M 135 630 
L 135 86.4 
" style="fill: none; stroke: #000000; stroke-width: 0.8; stroke-linejoin: miter; stroke-linecap: square"/>
   </g>
   <g id="patch_4">
    <path d="M 972 630 
L 972 86.4 
" style="fill: none; stroke: #000000; stroke-width: 0.8; stroke-linejoin: miter; stroke-linecap: square"/>
   </g>
   <g id="patch_5">
    <path d="M 135 630 
L 972 630 
" style="fill: none; stroke: #000000; stroke-width: 0.8; stroke-linejoin: miter; stroke-linecap: square"/>
   </g>
   <g id="patch_6">
    <path d="M 135 86.4 
L 972 86.4 
" style="fill: none; stroke: #000000; stroke-width: 0.8; stroke-linejoin: miter; stroke-linecap: square"/>
   </g>
   <g id="legend_1">
    <g id="patch_7">
     <path d="M 868.05625 153.66875 
L 965 153.66875 
Q 967 153.66875 967 151.66875 
L 967 93.4 
Q 967 91.4 965 91.4 
L 868.05625 91.4 
Q 866.05625 91.4 866.05625 93.4 
L 866.05625 151.66875 
Q 866.05625 153.66875 868.05625 153.66875 
z
" style="fill: #ffffff; opacity: 0.8; stroke: #cccccc; stroke-linejoin: miter"/>
    </g>
    <g id="line2d_31">
     <path d="M 870.05625 99.498438 
L 880.05625 99.498438 
L 890.05625 99.498438 
" style="fill: none; stroke: #1f77b4; stroke-width: 1.5; stroke-linecap: square"/>
    </g>
    <g id="text_14">
     <!-- loss -->
     <g transform="translate(898.05625 102.998438)scale(0.1 -0.1)">
      <defs>
       <path id="DejaVuSans-6c" d="M 603 4863 
L 1178 4863 
L 1178 0 
L 603 0 
L 603 4863 
z
" transform="scale(0.015625)"/>
       <path id="DejaVuSans-6f" d="M 1959 3097 
Q 1497 3097 1228 2736 
Q 959 2375 959 1747 
Q 959 1119 1226 758 
Q 1494 397 1959 397 
Q 2419 397 2687 759 
Q 2956 1122 2956 1747 
Q 2956 2369 2687 2733 
Q 2419 3097 1959 3097 
z
M 1959 3584 
Q 2709 3584 3137 3096 
Q 3566 2609 3566 1747 
Q 3566 888 3137 398 
Q 2709 -91 1959 -91 
Q 1206 -91 779 398 
Q 353 888 353 1747 
Q 353 2609 779 3096 
Q 1206 3584 1959 3584 
z
" transform="scale(0.015625)"/>
       <path id="DejaVuSans-73" d="M 2834 3397 
L 2834 2853 
Q 2591 2978 2328 3040 
Q 2066 3103 1784 3103 
Q 1356 3103 1142 2972 
Q 928 2841 928 2578 
Q 928 2378 1081 2264 
Q 1234 2150 1697 2047 
L 1894 2003 
Q 2506 1872 2764 1633 
Q 3022 1394 3022 966 
Q 3022 478 2636 193 
Q 2250 -91 1575 -91 
Q 1294 -91 989 -36 
Q 684 19 347 128 
L 347 722 
Q 666 556 975 473 
Q 1284 391 1588 391 
Q 1994 391 2212 530 
Q 2431 669 2431 922 
Q 2431 1156 2273 1281 
Q 2116 1406 1581 1522 
L 1381 1569 
Q 847 1681 609 1914 
Q 372 2147 372 2553 
Q 372 3047 722 3315 
Q 1072 3584 1716 3584 
Q 2034 3584 2315 3537 
Q 2597 3491 2834 3397 
z
" transform="scale(0.015625)"/>
      </defs>
      <use xlink:href="#DejaVuSans-6c"/>
      <use xlink:href="#DejaVuSans-6f" x="27.783203"/>
      <use xlink:href="#DejaVuSans-73" x="88.964844"/>
      <use xlink:href="#DejaVuSans-73" x="141.064453"/>
     </g>
    </g>
    <g id="line2d_32">
     <path d="M 870.05625 114.176563 
L 880.05625 114.176563 
L 890.05625 114.176563 
" style="fill: none; stroke: #ff7f0e; stroke-width: 1.5; stroke-linecap: square"/>
    </g>
    <g id="text_15">
     <!-- accuracy -->
     <g transform="translate(898.05625 117.676563)scale(0.1 -0.1)">
      <defs>
       <path id="DejaVuSans-61" d="M 2194 1759 
Q 1497 1759 1228 1600 
Q 959 1441 959 1056 
Q 959 750 1161 570 
Q 1363 391 1709 391 
Q 2188 391 2477 730 
Q 2766 1069 2766 1631 
L 2766 1759 
L 2194 1759 
z
M 3341 1997 
L 3341 0 
L 2766 0 
L 2766 531 
Q 2569 213 2275 61 
Q 1981 -91 1556 -91 
Q 1019 -91 701 211 
Q 384 513 384 1019 
Q 384 1609 779 1909 
Q 1175 2209 1959 2209 
L 2766 2209 
L 2766 2266 
Q 2766 2663 2505 2880 
Q 2244 3097 1772 3097 
Q 1472 3097 1187 3025 
Q 903 2953 641 2809 
L 641 3341 
Q 956 3463 1253 3523 
Q 1550 3584 1831 3584 
Q 2591 3584 2966 3190 
Q 3341 2797 3341 1997 
z
" transform="scale(0.015625)"/>
       <path id="DejaVuSans-63" d="M 3122 3366 
L 3122 2828 
Q 2878 2963 2633 3030 
Q 2388 3097 2138 3097 
Q 1578 3097 1268 2742 
Q 959 2388 959 1747 
Q 959 1106 1268 751 
Q 1578 397 2138 397 
Q 2388 397 2633 464 
Q 2878 531 3122 666 
L 3122 134 
Q 2881 22 2623 -34 
Q 2366 -91 2075 -91 
Q 1284 -91 818 406 
Q 353 903 353 1747 
Q 353 2603 823 3093 
Q 1294 3584 2113 3584 
Q 2378 3584 2631 3529 
Q 2884 3475 3122 3366 
z
" transform="scale(0.015625)"/>
       <path id="DejaVuSans-75" d="M 544 1381 
L 544 3500 
L 1119 3500 
L 1119 1403 
Q 1119 906 1312 657 
Q 1506 409 1894 409 
Q 2359 409 2629 706 
Q 2900 1003 2900 1516 
L 2900 3500 
L 3475 3500 
L 3475 0 
L 2900 0 
L 2900 538 
Q 2691 219 2414 64 
Q 2138 -91 1772 -91 
Q 1169 -91 856 284 
Q 544 659 544 1381 
z
M 1991 3584 
L 1991 3584 
z
" transform="scale(0.015625)"/>
       <path id="DejaVuSans-72" d="M 2631 2963 
Q 2534 3019 2420 3045 
Q 2306 3072 2169 3072 
Q 1681 3072 1420 2755 
Q 1159 2438 1159 1844 
L 1159 0 
L 581 0 
L 581 3500 
L 1159 3500 
L 1159 2956 
Q 1341 3275 1631 3429 
Q 1922 3584 2338 3584 
Q 2397 3584 2469 3576 
Q 2541 3569 2628 3553 
L 2631 2963 
z
" transform="scale(0.015625)"/>
       <path id="DejaVuSans-79" d="M 2059 -325 
Q 1816 -950 1584 -1140 
Q 1353 -1331 966 -1331 
L 506 -1331 
L 506 -850 
L 844 -850 
Q 1081 -850 1212 -737 
Q 1344 -625 1503 -206 
L 1606 56 
L 191 3500 
L 800 3500 
L 1894 763 
L 2988 3500 
L 3597 3500 
L 2059 -325 
z
" transform="scale(0.015625)"/>
      </defs>
      <use xlink:href="#DejaVuSans-61"/>
      <use xlink:href="#DejaVuSans-63" x="61.279297"/>
      <use xlink:href="#DejaVuSans-63" x="116.259766"/>
      <use xlink:href="#DejaVuSans-75" x="171.240234"/>
      <use xlink:href="#DejaVuSans-72" x="234.619141"/>
      <use xlink:href="#DejaVuSans-61" x="275.732422"/>
      <use xlink:href="#DejaVuSans-63" x="337.011719"/>
      <use xlink:href="#DejaVuSans-79" x="391.992188"/>
     </g>
    </g>
    <g id="line2d_33">
     <path d="M 870.05625 128.854688 
L 880.05625 128.854688 
L 890.05625 128.854688 
" style="fill: none; stroke: #2ca02c; stroke-width: 1.5; stroke-linecap: square"/>
    </g>
    <g id="text_16">
     <!-- val_loss -->
     <g transform="translate(898.05625 132.354688)scale(0.1 -0.1)">
      <defs>
       <path id="DejaVuSans-76" d="M 191 3500 
L 800 3500 
L 1894 563 
L 2988 3500 
L 3597 3500 
L 2284 0 
L 1503 0 
L 191 3500 
z
" transform="scale(0.015625)"/>
       <path id="DejaVuSans-5f" d="M 3263 -1063 
L 3263 -1509 
L -63 -1509 
L -63 -1063 
L 3263 -1063 
z
" transform="scale(0.015625)"/>
      </defs>
      <use xlink:href="#DejaVuSans-76"/>
      <use xlink:href="#DejaVuSans-61" x="59.179688"/>
      <use xlink:href="#DejaVuSans-6c" x="120.458984"/>
      <use xlink:href="#DejaVuSans-5f" x="148.242188"/>
      <use xlink:href="#DejaVuSans-6c" x="198.242188"/>
      <use xlink:href="#DejaVuSans-6f" x="226.025391"/>
      <use xlink:href="#DejaVuSans-73" x="287.207031"/>
      <use xlink:href="#DejaVuSans-73" x="339.306641"/>
     </g>
    </g>
    <g id="line2d_34">
     <path d="M 870.05625 143.810938 
L 880.05625 143.810938 
L 890.05625 143.810938 
" style="fill: none; stroke: #d62728; stroke-width: 1.5; stroke-linecap: square"/>
    </g>
    <g id="text_17">
     <!-- val_accuracy -->
     <g transform="translate(898.05625 147.310938)scale(0.1 -0.1)">
      <use xlink:href="#DejaVuSans-76"/>
      <use xlink:href="#DejaVuSans-61" x="59.179688"/>
      <use xlink:href="#DejaVuSans-6c" x="120.458984"/>
      <use xlink:href="#DejaVuSans-5f" x="148.242188"/>
      <use xlink:href="#DejaVuSans-61" x="198.242188"/>
      <use xlink:href="#DejaVuSans-63" x="259.521484"/>
      <use xlink:href="#DejaVuSans-63" x="314.501953"/>
      <use xlink:href="#DejaVuSans-75" x="369.482422"/>
      <use xlink:href="#DejaVuSans-72" x="432.861328"/>
      <use xlink:href="#DejaVuSans-61" x="473.974609"/>
      <use xlink:href="#DejaVuSans-63" x="535.253906"/>
      <use xlink:href="#DejaVuSans-79" x="590.234375"/>
     </g>
    </g>
   </g>
  </g>
 </g>
 <defs>
  <clipPath id="pd0c6b8dd91">
   <rect x="135" y="86.4" width="837" height="543.6"/>
  </clipPath>
 </defs>
</svg>
